<?xml version="1.0" encoding="UTF-8" standalone="no" ?>
<!DOCTYPE svg PUBLIC "-//W3C//DTD SVG 1.1//EN" "http://www.w3.org/Graphics/SVG/1.1/DTD/svg11.dtd">
<svg xmlns="http://www.w3.org/2000/svg" xmlns:xlink="http://www.w3.org/1999/xlink" version="1.1" width="1080" height="1080" viewBox="0 0 1080 1080" xml:space="preserve">
<desc>Created with Fabric.js 5.2.4</desc>
<defs>
</defs>
<rect x="0" y="0" width="100%" height="100%" fill="transparent"></rect>
<g transform="matrix(1 0 0 1 540 540)" id="608d6eda-1076-49c3-8068-e91d68c7ae3c"  >
</g>
<g transform="matrix(1 0 0 1 540 540)" id="1a413357-ed38-43e8-a974-b0957d290dc8"  >
<rect style="stroke: none; stroke-width: 1; stroke-dasharray: none; stroke-linecap: butt; stroke-dashoffset: 0; stroke-linejoin: miter; stroke-miterlimit: 4; fill: rgb(255,255,255); fill-rule: nonzero; opacity: 1; visibility: hidden;" vector-effect="non-scaling-stroke"  x="-540" y="-540" rx="0" ry="0" width="1080" height="1080" />
</g>
<g transform="matrix(1 0 0 1 488.22 463.17)"  >
<path style="stroke: none; stroke-width: 1; stroke-dasharray: none; stroke-linecap: butt; stroke-dashoffset: 0; stroke-linejoin: miter; stroke-miterlimit: 4; fill: rgb(5,26,72); fill-rule: nonzero; opacity: 1;" vector-effect="non-scaling-stroke"  transform=" translate(-396.22, -371.17)" d="M 475.711731 245.268478 C 505.183258 263.034454 516.926514 295.235229 505.122955 326.054962 C 498.550385 343.216217 485.782684 353.907288 469.011902 360.36145 C 467.656372 360.883118 466.31311 361.436584 463.694336 362.48233 C 467.896515 363.73819 470.950958 364.598145 473.972137 365.562347 C 496.221313 372.66333 513.321899 385.531403 519.255554 409.15744 C 526.413818 437.659576 520.747986 463.242706 498.876038 484.752502 C 497.878174 485.675262 497.392212 486.295715 496.906281 486.916138 C 490.574463 490.691132 484.242645 494.466125 477.226196 498.330353 C 475.031006 499.000336 473.520477 499.581055 472.009918 500.161774 C 471.613464 500.248413 471.21701 500.335022 470.23999 500.41864 C 469.112732 500.699799 468.56604 500.984009 468.019348 501.268188 C 467.620087 501.320648 467.220825 501.373108 466.206055 501.370178 C 464.731506 501.616669 463.872437 501.918518 463.013367 502.220398 C 462.61377 502.2724 462.214203 502.324402 461.196472 502.329346 C 459.722992 502.578827 458.867645 502.875366 458.012268 503.171875 C 457.004608 503.268158 455.996918 503.364441 454.30246 503.402374 C 452.747467 503.606934 451.879272 503.869812 451.011078 504.13269 C 449.684723 504.247925 448.358398 504.363129 446.327484 504.422455 C 444.75238 504.627533 443.881836 504.888519 443.011292 505.149475 C 441.684052 505.255157 440.356842 505.36087 438.274719 505.394928 C 436.018097 505.611603 434.516357 505.899902 433.014618 506.188202 C 431.685394 506.271729 430.356171 506.355225 428.266724 506.362701 C 426.008789 506.58078 424.511108 506.874908 423.013397 507.169006 C 372.645752 507.213654 322.278076 507.258331 271.380402 506.747772 C 270.842773 468.911102 270.84314 431.629669 270.803131 394.348236 C 270.801239 392.563904 270.443176 390.779999 270.251007 388.99588 C 270.278351 338.393921 270.305695 287.791962 270.755707 236.564896 C 272.824646 235.796967 274.470886 235.530167 276.117218 235.529312 C 326.609009 235.503235 377.1008 235.508347 427.59259 235.484039 C 430.065002 235.482849 432.537262 235.260162 435.009613 235.140656 C 437.41629 235.319397 439.822937 235.498138 442.79718 235.913834 C 444.245667 236.14447 445.126556 236.138138 446.007446 236.131821 C 446.963196 236.257935 447.918915 236.384048 449.351868 236.757935 C 450.553833 237.025482 451.278595 237.045288 452.003326 237.065094 C 452.645752 237.204269 453.288208 237.343445 454.366943 237.766388 C 455.538727 238.087616 456.27417 238.125031 457.009613 238.162445 C 457.366486 238.24147 457.723358 238.32048 458.555389 238.716614 C 461.771973 239.797638 464.513428 240.561539 467.254852 241.325455 C 467.84964 241.610809 468.444427 241.896164 469.503967 242.556976 C 470.721069 243.115952 471.473389 243.299469 472.225739 243.482986 C 472.840668 243.803391 473.455597 244.12381 474.477661 244.796814 C 474.884796 245.149399 475.278168 245.348846 475.278168 245.348846 C 475.278168 245.348846 475.711731 245.268478 475.711731 245.268478 M 418.050171 447.746613 C 438.627014 442.841492 442.421661 420.969391 435.763611 408.224426 C 430.743317 398.614441 421.855072 394.658112 411.914093 394.194092 C 393.152161 393.318268 374.340942 393.496033 355.549927 393.258942 C 355.273224 393.255463 354.992798 393.549194 354.647888 393.741028 C 354.647888 412.404755 354.647888 431.087311 354.647888 450.070129 C 368.193054 450.070129 381.336426 450.311584 394.46521 449.977661 C 402.076782 449.784027 409.664825 448.66507 418.050171 447.746613 M 371.501831 289.038574 C 365.89624 289.038574 360.290649 289.038574 354.508759 289.038574 C 354.508759 307.101471 354.508759 324.50351 354.508759 342.137085 C 369.567505 342.137085 384.358368 342.229584 399.146393 342.065643 C 402.43808 342.029175 405.771393 341.30484 408.996887 340.528748 C 421.420959 337.539215 427.953644 328.762238 427.944824 315.335144 C 427.936462 302.57312 421.600525 293.108337 409.292969 291.196655 C 397.208801 289.319672 384.779053 289.667267 371.501831 289.038574 z" stroke-linecap="round" />
</g>
<g transform="matrix(1 0 0 1 843.43 465.91)"  >
<path style="stroke: none; stroke-width: 1; stroke-dasharray: none; stroke-linecap: butt; stroke-dashoffset: 0; stroke-linejoin: miter; stroke-miterlimit: 4; fill: rgb(5,27,73); fill-rule: nonzero; opacity: 1;" vector-effect="non-scaling-stroke"  transform=" translate(-751.43, -373.91)" d="M 683.201233 364.646393 C 681.261597 364.575714 679.799133 364.505096 678.03009 364.419708 C 678.03009 346.375275 678.03009 328.659119 678.03009 310.447083 C 687.269775 310.447083 696.210999 310.447083 705.732361 310.447083 C 705.732361 300.009735 706.010864 290.045013 705.613647 280.10733 C 705.418152 275.218811 707.12085 272.845001 711.483398 270.677887 C 732.817688 260.079895 753.943237 249.061737 775.148804 238.20433 C 776.597168 237.462784 778.096802 236.821274 780.196899 235.842239 C 780.196899 260.777374 780.196899 285.160583 780.196899 310.227539 C 794.377197 310.227539 808.078308 310.227539 822.005005 310.227539 C 822.005005 328.665527 822.005005 346.416046 822.005005 364.703186 C 808.175049 364.703186 794.585632 364.703186 780.385559 364.703186 C 780.385559 366.861755 780.385193 368.485687 780.38562 370.109589 C 780.391785 391.608215 780.363403 413.106964 780.436523 434.605347 C 780.449463 438.427094 780.724915 442.265503 781.157043 446.064636 C 782.143127 454.733582 786.907288 459.605988 795.632446 459.31308 C 802.373413 459.086823 809.061096 457.249298 815.769531 456.110565 C 816.86731 455.924225 817.949585 455.647186 819.577698 455.295807 C 820.742126 465.854309 821.877563 476.062378 822.989929 486.27298 C 823.567261 491.571777 823.965027 496.894806 824.717163 502.167908 C 825.093811 504.80838 824.606201 506.084656 821.737732 506.636597 C 797.727539 511.25647 773.62323 514.047607 749.240173 510.07486 C 725.396301 506.189972 711.503296 492.273193 708.19873 468.343048 C 706.699646 457.487396 706.027771 446.45752 705.847412 435.492432 C 705.491272 413.832947 705.738708 392.163544 705.736755 370.49826 C 705.736572 368.716553 705.736755 366.934845 705.736755 364.646454 C 697.945312 364.646454 690.811829 364.646454 683.201233 364.646393 z" stroke-linecap="round" />
</g>
<g transform="matrix(1 0 0 1 265.86 592.34)"  >
<path style="stroke: none; stroke-width: 1; stroke-dasharray: none; stroke-linecap: butt; stroke-dashoffset: 0; stroke-linejoin: miter; stroke-miterlimit: 4; fill: rgb(16,36,76); fill-rule: nonzero; opacity: 1;" vector-effect="non-scaling-stroke"  transform=" translate(-173.86, -500.34)" d="M 99.265617 478.433044 C 99.901909 487.115448 100.527565 495.330505 101.153221 503.545532 C 100.756226 503.673157 100.359238 503.800781 99.962242 503.928406 C 99.223915 502.243591 98.604034 500.494476 97.729477 498.883606 C 84.698814 474.88269 88.10157 450.321228 96.566803 426.272308 C 114.621689 374.980042 162.834641 342.79953 217.333664 345.544037 C 228.656967 346.114288 239.956161 349.217926 251.026871 352.080597 C 259.439972 354.256042 259.534424 355.412048 257.682953 364.97995 C 244.400131 359.283417 230.549301 356.080261 216.205841 355.042816 C 214.221924 354.899323 212.047867 354.568542 210.276291 355.20282 C 208.876022 355.704132 206.96637 357.644714 207.070419 358.782654 C 207.209778 360.306488 208.856415 361.976624 210.27739 362.996826 C 211.186981 363.649933 212.856552 363.267365 214.186661 363.308502 C 227.858704 363.731384 240.846375 367.027405 253.388138 372.393585 C 257.215973 374.031372 259.727844 376.040039 257.36618 381.971069 C 254.453781 381.49234 250.81514 381.58609 247.768311 380.289337 C 204.270325 361.776093 152.556015 379.152252 129.468018 420.188934 C 127.944473 422.896881 126.951523 425.666901 130.281067 427.515533 C 133.640015 429.380432 135.400528 426.886169 136.979401 424.310455 C 154.446045 395.815857 179.937653 381.288452 213.326233 381.548828 C 221.918808 381.615845 230.49353 383.97113 239.021164 386.066528 C 234.098129 390.177887 229.816544 393.085693 222.867264 391.935913 C 180.51387 384.928375 140.937546 414.870972 136.219147 457.43866 C 133.020966 486.29126 138.730225 514.130127 147.676682 541.425232 C 148.596436 544.231384 150.376373 546.387146 153.604111 545.13739 C 157.241516 543.729004 156.313629 540.710632 155.390884 537.92218 C 147.851288 515.138123 143.673874 491.784393 143.71077 467.750031 C 143.77269 427.414093 177.369202 396.160919 216.753647 399.729797 C 217.733063 399.818542 218.701141 400.032257 220.286194 400.28537 C 217.39328 404.141724 214.421402 407.465424 212.195343 411.230164 C 209.328339 416.078857 208.031784 422.248199 204.250778 426.051056 C 200.670044 429.652435 194.42511 430.423248 189.92717 433.329346 C 177.722366 441.214813 171.319 452.688812 171.367798 467.283051 C 171.505005 508.30957 183.748962 545.583069 206.651443 579.484863 C 208.357529 582.010315 210.466507 583.576782 213.280869 581.68512 C 216.181931 579.735229 215.237091 577.091187 213.616913 574.67865 C 202.778885 558.540466 194.140457 541.330688 188.406143 522.722839 C 182.725876 504.290497 179.705734 485.43811 179.974075 466.127045 C 180.159485 452.784882 188.838852 441.202209 201.265045 437.682159 C 201.17511 442.840393 201.583847 447.500244 196.387253 451.25061 C 190.22052 455.701202 189.209778 462.989655 189.290146 470.17984 C 189.546753 493.141968 194.762024 515.0625 203.535202 536.18927 C 214.506714 562.609741 230.405563 585.549011 252.014404 604.420776 C 259.078491 610.590088 259.080933 610.58728 257.897705 621.431458 C 254.701584 618.874512 251.636429 616.777039 248.99382 614.239441 C 242.029007 607.551697 235.311234 600.60675 228.34967 593.915527 C 226.564026 592.199219 224.994522 588.625916 221.506638 591.761841 C 218.075516 594.84668 219.941238 597.482056 222.363434 599.793762 C 232.231659 609.211853 241.959488 618.797852 252.198929 627.798767 C 258.893311 633.683472 259.247284 633.280823 257.692352 644.125 C 249.376282 637.4422 241.17981 631.559692 233.789322 624.796448 C 198.764084 592.743713 174.666 554.118347 165.833633 507.067352 C 163.209381 493.087677 162.055298 478.598907 162.277649 464.375458 C 162.574036 445.413666 172.071991 431.21402 189.400085 422.737457 C 191.492661 421.713806 194.018188 421.247131 195.682419 419.77533 C 197.122681 418.501617 197.624237 416.166473 198.540741 414.300537 C 196.579361 413.584747 194.238831 411.785492 192.714584 412.318878 C 175.373199 418.387329 162.901093 429.697632 157.193268 447.485291 C 151.207825 466.138092 152.65036 485.087341 156.453461 503.838074 C 169.144745 566.410889 201.542603 615.976746 254.879959 651.527771 C 255.971725 652.255432 256.994537 653.09314 257.997192 653.941345 C 258.164368 654.082764 258.061646 654.543091 258.11441 655.294678 C 257.176758 655.203186 256.291229 655.24884 255.484467 655.018555 C 235.843643 649.413757 219.940247 638.363464 206.495514 622.996338 C 192.928375 607.489197 180.883072 591.044067 171.036148 572.967468 C 170.239594 571.505249 169.674835 569.632446 168.433243 568.764893 C 166.657013 567.523804 164.355713 567.034119 162.278625 566.223572 C 161.856735 568.411499 160.368469 571.176636 161.188782 572.6922 C 165.939713 581.469116 170.989014 590.111023 176.421844 598.484253 C 180.928101 605.429321 186.103043 611.940491 190.460342 619.820251 C 189.376892 619.401367 188.206802 619.127991 187.222763 618.542175 C 167.377579 606.727295 157.23761 587.452332 148.123032 567.436096 C 132.419205 532.949524 123.892853 496.987579 126.142906 458.861206 C 126.279877 456.540344 126.709129 454.237183 126.988953 451.924164 C 127.357689 448.876099 127.052727 445.524536 123.399887 445.62616 C 121.719696 445.672882 118.829025 448.762817 118.706047 450.61972 C 117.948929 462.051758 116.904976 473.587952 117.674232 484.973419 C 119.529984 512.439575 126.589134 538.775085 137.262634 564.145203 C 137.852936 565.548279 138.023697 567.127869 138.671143 569.77655 C 123.242943 552.750488 114.541428 534.111633 111.546379 512.57843 C 109.087036 494.896759 106.398972 477.262329 107.846054 459.364929 C 111.353516 415.984955 138.868408 381.418915 180.336182 367.988098 C 181.7621 367.526276 183.568069 367.471558 184.533875 366.539825 C 185.893021 365.228638 186.631271 363.273865 187.63501 361.594299 C 185.798233 360.590637 183.717072 358.456726 182.169678 358.791321 C 177.157608 359.875061 172.117386 361.390472 167.48465 363.579163 C 123.631538 384.297058 100.331459 418.656677 99.099663 467.470703 C 99.011467 470.965515 99.196823 474.467194 99.265617 478.433044 z" stroke-linecap="round" />
</g>
<g transform="matrix(1 0 0 1 694.83 500.72)"  >
<path style="stroke: none; stroke-width: 1; stroke-dasharray: none; stroke-linecap: butt; stroke-dashoffset: 0; stroke-linejoin: miter; stroke-miterlimit: 4; fill: rgb(5,26,72); fill-rule: nonzero; opacity: 1;" vector-effect="non-scaling-stroke"  transform=" translate(-602.82, -408.72)" d="M 613.000244 310.400665 C 622.138855 310.400696 630.777405 310.400696 639.786499 310.400696 C 639.786499 376.159729 639.786499 441.508301 639.786499 507.044922 C 615.128479 507.044922 590.57959 507.044922 565.855469 507.044922 C 565.855469 441.48999 565.855469 376.255188 565.855469 310.400635 C 581.590149 310.400635 597.045166 310.400635 613.000244 310.400665 z" stroke-linecap="round" />
</g>
<g transform="matrix(1 0 0 1 535.25 687.61)"  >
<path style="stroke: none; stroke-width: 1; stroke-dasharray: none; stroke-linecap: butt; stroke-dashoffset: 0; stroke-linejoin: miter; stroke-miterlimit: 4; fill: rgb(110,172,220); fill-rule: nonzero; opacity: 1;" vector-effect="non-scaling-stroke"  transform=" translate(-443.25, -595.61)" d="M 484.090454 586.914185 C 479.667084 594.78009 472.568665 598.940186 464.803528 602.399597 C 482.797089 615.639282 486.562653 636.505371 497.355988 654.566406 C 494.191528 654.76947 492.604431 654.952759 491.01651 654.959778 C 482.353027 654.997803 473.680481 654.761719 465.029327 655.094727 C 460.390503 655.273254 457.765564 653.773438 455.748566 649.464294 C 450.462738 638.171326 444.981628 626.942139 438.907562 616.062012 C 436.96698 612.585999 433.354584 609.359253 429.736145 607.672363 C 424.920258 605.427246 423.232849 607.156189 423.224548 612.58551 C 423.205414 625.081177 423.09259 637.578918 423.297821 650.071228 C 423.358612 653.773254 422.304108 655.045166 418.51413 654.927856 C 410.191559 654.67041 401.854034 654.746582 393.526062 654.888855 C 390.281586 654.944275 389.143127 653.749268 389.149719 650.509094 C 389.224335 613.855347 389.212219 577.201294 389.176666 540.547363 C 389.174042 537.83252 389.702484 536.060486 392.978363 536.108582 C 414.44986 536.424316 435.985016 535.723267 457.37915 537.153015 C 484.172699 538.943665 496.069824 561.777344 484.090454 586.914185 M 454.112 570.689209 C 453.766052 565.668945 451.522919 561.900391 446.298035 561.2677 C 439.899109 560.492859 433.425476 560.200745 426.977203 560.084229 C 425.736633 560.061707 423.415924 561.769226 423.373657 562.755005 C 423.063354 569.990051 423.206146 577.244507 423.206146 585.121887 C 430.233093 584.403381 436.587555 583.675476 442.957184 583.122192 C 450.940674 582.42865 453.707489 579.633118 454.112 570.689209 z" stroke-linecap="round" />
</g>
<g transform="matrix(1 0 0 1 253.83 462.42)"  >
<path style="stroke: none; stroke-width: 1; stroke-dasharray: none; stroke-linecap: butt; stroke-dashoffset: 0; stroke-linejoin: miter; stroke-miterlimit: 4; fill: rgb(17,36,77); fill-rule: nonzero; opacity: 1;" vector-effect="non-scaling-stroke"  transform=" translate(-161.83, -370.42)" d="M 98.662704 331.673737 C 100.615509 330.076508 102.29631 328.710968 103.975822 327.343811 C 106.397049 325.372864 108.973213 323.167999 106.349289 319.914856 C 103.92836 316.913422 101.093414 318.551514 98.95858 320.568024 C 89.169563 329.814362 79.488708 339.175385 69.793114 348.520233 C 68.752357 349.523315 67.868156 350.688873 66.782578 351.925812 C 64.096909 342.085693 64.206451 339.389618 71.084778 333.187256 C 82.313301 323.062225 94.128387 313.586731 105.717239 303.862518 C 113.982964 296.926758 124.464554 297.915405 134.135254 296.037231 C 136.008575 295.673431 137.958939 295.70639 140.231873 296.207733 C 136.32489 298.147003 132.40416 300.059204 128.515533 302.034607 C 125.694977 303.467407 122.563629 304.580597 120.24781 306.609131 C 118.77549 307.898773 118.542496 310.603241 117.753738 312.673279 C 119.954552 313.053955 122.540207 314.369904 124.288414 313.650574 C 131.202515 310.805634 137.699432 306.939514 144.629425 304.141541 C 178.994064 290.266876 214.317474 287.403992 250.502701 295.537689 C 259.08252 297.466217 259.170013 297.598236 257.929016 306.895752 C 249.313599 305.283203 240.717361 303.572571 232.080093 302.103333 C 228.149216 301.434662 224.141022 301.199158 220.160629 300.849976 C 217.063507 300.578339 213.61293 300.464264 213.202728 304.540405 C 212.781845 308.722778 216.219284 308.879181 219.316666 309.340057 C 229.679443 310.881866 240.072601 312.309052 250.347626 314.323425 C 258.96817 316.013397 258.902222 316.349762 258.037598 325.830841 C 250.957932 324.216705 243.964508 322.273682 236.846878 321.057648 C 199.119858 314.612 163.990326 321.626892 131.500671 341.859039 C 131.217896 342.035126 130.920349 342.189484 130.647995 342.380066 C 128.221848 344.078125 124.884033 345.6203 126.973915 349.3255 C 129.217133 353.302551 132.143326 351.172302 135.081238 349.679718 C 145.005356 344.637878 154.68515 338.843994 165.085587 335.062866 C 193.359573 324.783752 222.16246 324.619141 251.008621 333.042511 C 259.11734 335.410339 259.189026 335.670959 257.891785 344.732361 C 218.64299 332.78067 180.191711 332.871277 144.3452 355.05127 C 109.155136 376.825134 87.815346 408.437103 81.184776 449.81543 C 79.696648 443.535889 77.493332 437.314178 76.979538 430.955902 C 76.653656 426.923218 78.487907 422.556396 79.963196 418.564819 C 87.055824 399.374939 97.906754 382.566498 112.540176 368.229248 C 113.967896 366.830475 115.331802 365.36676 116.734833 363.942535 C 118.875015 361.77005 120.601807 359.355957 117.87751 356.634766 C 115.339752 354.099884 112.887154 355.679626 110.934929 357.693817 C 106.069084 362.714203 100.594215 367.355591 96.699081 373.06073 C 89.032196 384.290314 82.26815 396.136505 75.140648 407.733826 C 74.560349 408.67807 74.056931 409.669586 73.153542 411.294159 C 71.116844 402.830017 69.722725 395.783264 74.419357 387.844788 C 101.366791 342.297089 141.407196 317.279816 193.33519 310.246918 C 195.80896 309.911865 198.428268 309.911957 200.689423 309.019897 C 202.077911 308.472107 203.916977 306.375244 203.750366 305.23819 C 203.527435 303.716736 201.79866 301.906769 200.269745 301.22998 C 198.762894 300.562958 196.677017 300.987213 194.882202 301.219055 C 141.639297 308.096985 99.226082 332.452057 70.285149 378.515778 C 69.942734 379.060791 69.522797 379.557068 68.638306 380.753387 C 67.399872 372.462952 65.476822 365.128052 72.203789 358.621857 C 81.164146 349.955566 89.682098 340.831879 98.662704 331.673737 z" stroke-linecap="round" />
</g>
<g transform="matrix(1 0 0 1 410.87 688.08)"  >
<path style="stroke: none; stroke-width: 1; stroke-dasharray: none; stroke-linecap: butt; stroke-dashoffset: 0; stroke-linejoin: miter; stroke-miterlimit: 4; fill: rgb(109,172,219); fill-rule: nonzero; opacity: 1;" vector-effect="non-scaling-stroke"  transform=" translate(-318.88, -596.08)" d="M 276.779907 554.83252 C 285.090546 542.787109 296.672852 536.561584 310.494568 535.346558 C 319.356567 534.567444 328.50827 534.98822 337.32785 536.266663 C 354.722778 538.788208 367.165344 553.200012 370.964844 571.505798 C 362.026184 573.659424 353.083588 575.979004 344.036987 577.774414 C 342.966003 577.987 340.841034 575.575378 340.027405 573.9646 C 334.507141 563.03595 323.98938 558.934204 313.390808 564.052002 C 307.319824 566.983582 303.896271 572.283508 302.137482 578.598816 C 298.495605 591.67572 299.828644 604.699036 303.520508 617.472778 C 305.499756 624.320984 310.778442 628.222717 317.847076 628.92572 C 325.623718 629.699036 332.98645 628.680237 337.169983 620.78479 C 338.875458 617.566101 340.337799 614.192383 341.60672 610.776245 C 342.795441 607.575989 344.241669 606.316895 347.900848 607.683838 C 354.588226 610.181946 361.45282 612.222839 368.29599 614.279724 C 371.802399 615.333618 372.530731 617.367676 371.632263 620.705444 C 366.78653 638.707458 356.118408 650.93219 337.518127 655.324097 C 324.203522 658.468018 311.061249 657.681519 298.251282 652.944275 C 278.995422 645.823425 270.960266 630.092957 267.404968 611.390808 C 264.059296 593.791382 265.751953 576.613037 273.504578 560.261475 C 274.35495 558.467957 275.537781 556.832153 276.779907 554.83252 z" stroke-linecap="round" />
</g>
<g transform="matrix(1 0 0 1 758.34 687.52)"  >
<path style="stroke: none; stroke-width: 1; stroke-dasharray: none; stroke-linecap: butt; stroke-dashoffset: 0; stroke-linejoin: miter; stroke-miterlimit: 4; fill: rgb(109,172,220); fill-rule: nonzero; opacity: 1;" vector-effect="non-scaling-stroke"  transform=" translate(-666.33, -595.52)" d="M 667.978027 610.964111 C 664.320251 610.964233 661.146484 611.114685 657.99408 610.919373 C 654.873657 610.726013 653.990173 612.050293 654.021301 615.018921 C 654.143372 626.676025 653.898376 638.339111 654.167297 649.991272 C 654.261963 654.091492 652.84845 655.090637 649.005066 654.96582 C 641.019226 654.706543 633.016235 654.769592 625.026001 654.951721 C 621.508057 655.031921 619.945496 654.108154 619.957397 650.222839 C 620.069702 613.749023 620.055542 577.27478 619.972107 540.800842 C 619.964417 537.431946 620.92627 536.004517 624.499512 536.075073 C 643.963928 536.459717 663.448608 536.270203 682.892822 537.081543 C 700.123535 537.800598 710.347595 548.712158 712.236206 565.881714 C 713.206787 574.704834 712.903625 583.193359 709.265747 591.27655 C 702.729797 605.799072 690.087097 610.148621 675.465271 610.897949 C 673.138977 611.017273 670.802856 610.946106 667.978027 610.964111 M 663.226685 560.224609 C 660.312012 560.224609 657.397339 560.224609 654.012756 560.224609 C 654.012756 568.425598 653.874146 576.026855 654.16748 583.611389 C 654.209778 584.705872 656.2724 586.531128 657.497864 586.616577 C 660.932434 586.856201 664.422119 586.413391 667.882996 586.147583 C 675.064758 585.596069 679.508789 581.099976 679.897156 574.075256 C 680.270935 567.316223 676.060974 562.273621 669.019775 561.055359 C 667.391846 560.773621 665.760132 560.513184 663.226685 560.224609 z" stroke-linecap="round" />
</g>
<g transform="matrix(1 0 0 1 641.99 687.46)"  >
<path style="stroke: none; stroke-width: 1; stroke-dasharray: none; stroke-linecap: butt; stroke-dashoffset: 0; stroke-linejoin: miter; stroke-miterlimit: 4; fill: rgb(110,173,220); fill-rule: nonzero; opacity: 1;" vector-effect="non-scaling-stroke"  transform=" translate(-549.99, -595.46)" d="M 581.156311 582.16748 C 580.2771 583.617004 579.750366 584.88916 578.906433 585.89502 C 568.210999 598.642212 565.054688 613.372559 566.685242 629.646545 C 567.346313 636.243835 566.582031 642.972046 566.889648 649.621033 C 567.087708 653.901978 565.433228 655.060547 561.388428 654.92627 C 553.567993 654.666748 545.724731 654.636475 537.907043 654.933716 C 533.629028 655.096375 532.040527 653.925232 532.13501 649.38147 C 532.404907 636.394531 532.385498 623.393433 532.065552 610.408142 C 531.984375 607.111206 531.026855 603.450806 529.336548 600.640381 C 517.418945 580.825928 505.200317 561.192627 493.095398 541.490601 C 492.260162 540.131165 491.567474 538.684204 490.370483 536.466248 C 492.952972 536.314941 494.683746 536.133118 496.415253 536.125854 C 504.577301 536.091553 512.752197 536.378906 520.896973 536.000977 C 525.933105 535.767273 528.842896 537.583374 531.135254 542.028015 C 536.168823 551.787415 541.659546 561.311462 547.001892 570.910278 C 547.708923 572.180664 548.639404 573.32666 549.962219 575.25177 C 554.083435 567.98584 557.942322 561.259644 561.723083 554.489807 C 564.23877 549.985291 566.68396 545.440002 569.083862 540.872498 C 570.894897 537.425598 573.501648 535.930969 577.539185 536.019714 C 587.804382 536.2453 598.07782 536.094788 609.608154 536.094788 C 599.787598 552.00824 590.574463 566.937317 581.156311 582.16748 z" stroke-linecap="round" />
</g>
<g transform="matrix(1 0 0 1 865.62 687.59)"  >
<path style="stroke: none; stroke-width: 1; stroke-dasharray: none; stroke-linecap: butt; stroke-dashoffset: 0; stroke-linejoin: miter; stroke-miterlimit: 4; fill: rgb(110,172,220); fill-rule: nonzero; opacity: 1;" vector-effect="non-scaling-stroke"  transform=" translate(-773.62, -595.59)" d="M 774.994873 654.897461 C 770.498474 654.894409 766.476379 654.614746 762.509399 654.963135 C 758.192566 655.342346 756.788635 654.026794 756.827454 649.48822 C 757.048279 623.670959 756.772339 597.848877 757.069397 572.033142 C 757.129761 566.78595 755.547791 565.496033 750.601562 565.747192 C 742.792664 566.143677 734.946472 565.738586 727.121033 565.907043 C 723.924805 565.975891 722.706238 564.993652 722.736023 561.656189 C 722.795288 555.00824 722.548584 548.350952 722.209656 541.708557 C 722.000732 537.614624 723.586914 536.128906 727.72998 536.144348 C 758.545959 536.259399 789.362793 536.251709 820.178833 536.143372 C 823.90509 536.13031 825.159851 537.410217 825.03418 541.090576 C 824.806946 547.74585 824.782166 554.421509 825.037415 561.074707 C 825.186462 564.957825 823.557739 565.916626 820.018372 565.835266 C 812.193481 565.655273 804.35199 566.014343 796.536377 565.691101 C 792.202454 565.511902 790.822876 566.740173 790.859497 571.237183 C 791.070007 597.054626 790.855835 622.875549 791.058289 648.693115 C 791.094971 653.374268 789.957458 655.500244 784.981262 654.95459 C 781.854187 654.611633 778.658386 654.895081 774.994873 654.897461 z" stroke-linecap="round" />
</g>
<g transform="matrix(1 0 0 1 331.73 540.8)"  >
<path style="stroke: none; stroke-width: 1; stroke-dasharray: none; stroke-linecap: butt; stroke-dashoffset: 0; stroke-linejoin: miter; stroke-miterlimit: 4; fill: rgb(7,28,73); fill-rule: nonzero; opacity: 1;" vector-effect="non-scaling-stroke"  transform=" translate(-239.73, -448.8)" d="M 253.372849 391.51178 C 255.011902 391.127045 256.65097 390.74231 258.813782 390.429993 C 260.0336 390.252899 260.729675 390.003387 261.425751 389.753845 C 263.289764 389.577271 265.153778 389.400726 267.603943 389.632965 C 268.316956 391.021088 268.554047 392.000336 268.554626 392.979706 C 268.575958 430.033417 268.580078 467.087128 268.559387 504.140839 C 268.558655 505.455078 268.282928 506.769226 268.135345 508.083435 C 267.659821 508.091949 267.184326 508.100464 266.063721 507.867371 C 264.200806 507.609894 262.983002 507.594055 261.765198 507.578186 C 261.074677 507.45694 260.384186 507.335693 259.129395 506.942993 C 257.960449 506.658447 257.355774 506.645416 256.751068 506.632355 C 251.480057 504.554443 246.209045 502.476532 240.509857 500.093018 C 239.888931 499.587402 239.668411 499.549469 239.420135 499.673553 C 220.369247 487.080933 209.89299 469.522461 210.960663 446.537048 C 212.174835 420.398102 225.898941 402.557251 250.692627 392.624847 C 252.006744 392.213806 252.689789 391.862823 253.372849 391.51178 z" stroke-linecap="round" />
</g>
<g transform="matrix(1 0 0 1 694.64 351.92)"  >
<path style="stroke: none; stroke-width: 1; stroke-dasharray: none; stroke-linecap: butt; stroke-dashoffset: 0; stroke-linejoin: miter; stroke-miterlimit: 4; fill: rgb(6,27,72); fill-rule: nonzero; opacity: 1;" vector-effect="non-scaling-stroke"  transform=" translate(-602.64, -259.92)" d="M 611 235.010071 C 620.800354 235.010086 630.100708 235.010086 639.783508 235.010086 C 639.783508 251.777115 639.783508 268.16217 639.783508 284.919556 C 615.302063 284.919556 590.769714 284.919556 565.565979 284.919556 C 565.565979 278.033142 565.564697 271.269135 565.566223 264.505127 C 565.568176 256.176178 565.710815 247.843857 565.509338 239.519852 C 565.425781 236.069748 566.46814 234.883652 570.022095 234.931656 C 583.512634 235.113953 597.007019 235.008133 611 235.010071 z" stroke-linecap="round" />
</g>
<g transform="matrix(1 0 0 1 639.89 616.12)"  >
<path style="stroke: none; stroke-width: 1; stroke-dasharray: none; stroke-linecap: butt; stroke-dashoffset: 0; stroke-linejoin: miter; stroke-miterlimit: 4; fill: rgb(40,55,79); fill-rule: nonzero; opacity: 1;" vector-effect="non-scaling-stroke"  transform=" translate(-547.88, -524.11)" d="M 518.000122 522.241821 C 618.625427 522.23938 718.750732 522.229309 818.876038 522.283264 C 821.133545 522.284485 825.098328 520.806641 823.868835 526.128418 C 639.977173 526.128418 456.278168 526.128418 272.579132 526.128418 C 272.27475 525.735718 271.970367 525.343018 271.665985 524.950317 C 272.644165 524.049866 273.485168 522.797852 274.639038 522.347656 C 275.796539 521.896118 277.266052 522.242126 278.598816 522.242065 C 358.232574 522.24176 437.866302 522.24176 518.000122 522.241821 z" stroke-linecap="round" />
</g>
<g transform="matrix(1 0 0 1 319.9 619.99)"  >
<path style="stroke: none; stroke-width: 1; stroke-dasharray: none; stroke-linecap: butt; stroke-dashoffset: 0; stroke-linejoin: miter; stroke-miterlimit: 4; fill: rgb(16,36,76); fill-rule: nonzero; opacity: 1;" vector-effect="non-scaling-stroke"  transform=" translate(-227.9, -527.99)" d="M 215.323364 511.446228 C 215.305878 513.748901 215.119614 515.817871 215.760223 517.587402 C 224.066315 540.531189 235.576935 561.694519 252.706436 579.23291 C 258.078796 584.733521 259.182617 590.277466 257.984131 597.106934 C 225.489456 581.051392 185.135483 484.152191 200.910965 458.873108 C 201.404633 460.17041 201.916153 461.121338 202.129913 462.13504 C 205.60144 478.598114 214.084763 491.899811 227.074265 502.53125 C 229.217407 504.285339 230.966766 506.890472 232.091522 509.455933 C 237.43071 521.634033 244.193939 532.969971 253.79213 542.118652 C 259.203674 547.276855 258.541595 552.731018 257.941284 559.387878 C 243.973206 547.54364 233.169952 534.020264 225.514771 518.015076 C 224.653061 516.213501 223.948837 514.332214 223.018433 512.568726 C 221.170914 509.066925 218.750366 507.974518 215.323364 511.446228 z" stroke-linecap="round" />
</g>
<g transform="matrix(1 0 0 1 310.35 372.27)"  >
<path style="stroke: none; stroke-width: 1; stroke-dasharray: none; stroke-linecap: butt; stroke-dashoffset: 0; stroke-linejoin: miter; stroke-miterlimit: 4; fill: rgb(20,39,77); fill-rule: nonzero; opacity: 1;" vector-effect="non-scaling-stroke"  transform=" translate(-218.35, -280.27)" d="M 216.81575 282.71106 C 211.902969 282.666931 206.990173 282.622833 201.366608 282.501038 C 200.101608 282.59079 199.547379 282.75824 198.993164 282.92569 C 192.256821 283.639435 185.520493 284.35321 178.460114 284.869141 C 178.123611 284.471222 178.11116 284.271149 178.098694 284.071075 C 182.576889 282.319153 187.441681 281.18988 191.458939 278.695618 C 202.385513 271.911469 214.271347 272.327606 226.18103 273.407806 C 235.084167 274.215302 243.884766 276.100952 252.760147 277.289001 C 257.143188 277.875702 259.290436 279.760193 258.392212 284.384766 C 258.178741 285.483856 258.360565 286.659698 258.360565 287.745392 C 245.697311 286.101593 233.306519 284.493195 220.190582 282.69696 C 218.582214 282.576447 217.698975 282.643738 216.81575 282.71106 z" stroke-linecap="round" />
</g>
<g transform="matrix(1 0 0 1 171.81 405.57)"  >
<path style="stroke: none; stroke-width: 1; stroke-dasharray: none; stroke-linecap: butt; stroke-dashoffset: 0; stroke-linejoin: miter; stroke-miterlimit: 4; fill: rgb(22,40,78); fill-rule: nonzero; opacity: 1;" vector-effect="non-scaling-stroke"  transform=" translate(-79.81, -313.57)" d="M 74.546371 317.531128 C 71.55275 320.393738 68.815369 323.009613 65.662598 326.022461 C 65.662598 317.441956 65.662598 309.49588 65.662598 301.119934 C 75.344368 301.119934 84.45388 301.119934 93.967125 301.119934 C 87.518959 306.558716 81.160789 311.92157 74.546371 317.531128 z" stroke-linecap="round" />
</g>
<g transform="matrix(1 0 0 1 332.12 354.91)"  >
<path style="stroke: none; stroke-width: 1; stroke-dasharray: none; stroke-linecap: butt; stroke-dashoffset: 0; stroke-linejoin: miter; stroke-miterlimit: 4; fill: rgb(21,40,78); fill-rule: nonzero; opacity: 1;" vector-effect="non-scaling-stroke"  transform=" translate(-240.11, -262.91)" d="M 254.638809 259.406311 C 261.486053 261.374695 257.04071 266.153839 258.436737 269.444458 C 245.744522 267.584473 233.742737 265.825653 221.636185 264.051483 C 228.316376 257.484955 235.784821 254.612411 244.981201 257.507507 C 247.962723 258.446136 251.149429 258.733002 254.638809 259.406311 z" stroke-linecap="round" />
</g>
<g transform="matrix(1 0 0 1 342.39 615.26)"  >
<path style="stroke: none; stroke-width: 1; stroke-dasharray: none; stroke-linecap: butt; stroke-dashoffset: 0; stroke-linejoin: miter; stroke-miterlimit: 4; fill: rgb(27,43,78); fill-rule: nonzero; opacity: 1;" vector-effect="non-scaling-stroke"  transform=" translate(-250.39, -523.26)" d="M 258.375671 526.930054 C 258.375763 529.317444 258.375763 531.271729 258.375763 533.226074 C 257.914703 533.447815 257.453644 533.669617 256.992584 533.891357 C 252.299454 527.050781 247.606308 520.210144 242.404633 512.628296 C 256.493317 514.616211 258.37381 516.371643 258.375671 526.930054 z" stroke-linecap="round" />
</g>
<g transform="matrix(1 0 0 1 342.69 335.21)"  >
<path style="stroke: none; stroke-width: 1; stroke-dasharray: none; stroke-linecap: butt; stroke-dashoffset: 0; stroke-linejoin: miter; stroke-miterlimit: 4; fill: rgb(26,42,77); fill-rule: nonzero; opacity: 1;" vector-effect="non-scaling-stroke"  transform=" translate(-250.69, -243.21)" d="M 252.215393 250.247406 C 249.375931 249.738861 246.931915 249.296997 243.48378 248.673584 C 248.444397 244.004562 252.903488 239.807587 257.905975 235.099167 C 257.905975 240.743378 257.905975 245.841888 257.905975 251.319183 C 256.116425 250.979492 254.363632 250.646774 252.215393 250.247406 z" stroke-linecap="round" />
</g>
<g transform="matrix(1 0 0 1 265.74 378.02)"  >
<path style="stroke: none; stroke-width: 1; stroke-dasharray: none; stroke-linecap: butt; stroke-dashoffset: 0; stroke-linejoin: miter; stroke-miterlimit: 4; fill: rgb(182,188,196); fill-rule: nonzero; opacity: 1;" vector-effect="non-scaling-stroke"  transform=" translate(-173.74, -286.01)" d="M 177.708099 283.986572 C 178.11116 284.271149 178.123611 284.471222 178.037537 284.955444 C 175.261887 286.173035 172.584778 287.106445 169.907669 288.039856 C 169.737015 287.547821 169.56636 287.055786 169.395706 286.563721 C 172.036316 285.676514 174.67691 284.789307 177.708099 283.986572 z" stroke-linecap="round" />
</g>
<g transform="matrix(1 0 0 1 554.95 331.9)"  >
<path style="stroke: none; stroke-width: 1; stroke-dasharray: none; stroke-linecap: butt; stroke-dashoffset: 0; stroke-linejoin: miter; stroke-miterlimit: 4; fill: rgb(150,164,184); fill-rule: nonzero; opacity: 1;" vector-effect="non-scaling-stroke"  transform=" translate(-462.95, -239.9)" d="M 467.071655 241.044815 C 464.513428 240.561539 461.771973 239.797638 458.825867 238.76149 C 461.376984 239.247543 464.132721 240.005859 467.071655 241.044815 z" stroke-linecap="round" />
</g>
<g transform="matrix(1 0 0 1 527.57 597.94)"  >
<path style="stroke: none; stroke-width: 1; stroke-dasharray: none; stroke-linecap: butt; stroke-dashoffset: 0; stroke-linejoin: miter; stroke-miterlimit: 4; fill: rgb(150,164,184); fill-rule: nonzero; opacity: 1;" vector-effect="non-scaling-stroke"  transform=" translate(-435.57, -505.94)" d="M 433.259766 506.40155 C 434.516357 505.899902 436.018097 505.611603 437.885376 505.481995 C 436.668915 505.965454 435.086914 506.290192 433.259766 506.40155 z" stroke-linecap="round" />
</g>
<g transform="matrix(1 0 0 1 517.57 598.91)"  >
<path style="stroke: none; stroke-width: 1; stroke-dasharray: none; stroke-linecap: butt; stroke-dashoffset: 0; stroke-linejoin: miter; stroke-miterlimit: 4; fill: rgb(150,164,184); fill-rule: nonzero; opacity: 1;" vector-effect="non-scaling-stroke"  transform=" translate(-425.57, -506.91)" d="M 423.256226 507.387299 C 424.511108 506.874908 426.008789 506.58078 427.874695 506.437744 C 426.661652 506.927734 425.080353 507.266663 423.256226 507.387299 z" stroke-linecap="round" />
</g>
<g transform="matrix(1 0 0 1 566.57 591.42)"  >
<path style="stroke: none; stroke-width: 1; stroke-dasharray: none; stroke-linecap: butt; stroke-dashoffset: 0; stroke-linejoin: miter; stroke-miterlimit: 4; fill: rgb(150,164,184); fill-rule: nonzero; opacity: 1;" vector-effect="non-scaling-stroke"  transform=" translate(-474.56, -499.41)" d="M 472.237549 500.341431 C 473.520477 499.581055 475.031006 499.000336 476.890991 498.486572 C 475.648651 499.209351 474.056915 499.865204 472.237549 500.341431 z" stroke-linecap="round" />
</g>
<g transform="matrix(1 0 0 1 355.81 599.84)"  >
<path style="stroke: none; stroke-width: 1; stroke-dasharray: none; stroke-linecap: butt; stroke-dashoffset: 0; stroke-linejoin: miter; stroke-miterlimit: 4; fill: rgb(150,164,184); fill-rule: nonzero; opacity: 1;" vector-effect="non-scaling-stroke"  transform=" translate(-263.81, -507.85)" d="M 261.919983 507.837219 C 262.983002 507.594055 264.200806 507.609894 265.706665 507.859528 C 264.68808 508.094269 263.381439 508.095245 261.919983 507.837219 z" stroke-linecap="round" />
</g>
<g transform="matrix(1 0 0 1 556.56 593.93)"  >
<path style="stroke: none; stroke-width: 1; stroke-dasharray: none; stroke-linecap: butt; stroke-dashoffset: 0; stroke-linejoin: miter; stroke-miterlimit: 4; fill: rgb(150,164,184); fill-rule: nonzero; opacity: 1;" vector-effect="non-scaling-stroke"  transform=" translate(-464.56, -501.93)" d="M 463.205811 502.416565 C 463.872437 501.918518 464.731506 501.616669 465.915161 501.452026 C 465.292572 501.93042 464.345428 502.271576 463.205811 502.416565 z" stroke-linecap="round" />
</g>
<g transform="matrix(1 0 0 1 551.55 594.89)"  >
<path style="stroke: none; stroke-width: 1; stroke-dasharray: none; stroke-linecap: butt; stroke-dashoffset: 0; stroke-linejoin: miter; stroke-miterlimit: 4; fill: rgb(150,164,184); fill-rule: nonzero; opacity: 1;" vector-effect="non-scaling-stroke"  transform=" translate(-459.55, -502.89)" d="M 458.197601 503.378967 C 458.867645 502.875366 459.722992 502.578827 460.90506 502.410065 C 460.282135 502.887238 459.33255 503.236633 458.197601 503.378967 z" stroke-linecap="round" />
</g>
<g transform="matrix(1 0 0 1 544.56 595.92)"  >
<path style="stroke: none; stroke-width: 1; stroke-dasharray: none; stroke-linecap: butt; stroke-dashoffset: 0; stroke-linejoin: miter; stroke-miterlimit: 4; fill: rgb(150,164,184); fill-rule: nonzero; opacity: 1;" vector-effect="non-scaling-stroke"  transform=" translate(-452.56, -503.92)" d="M 451.193787 504.337463 C 451.879272 503.869812 452.747467 503.606934 453.93512 503.497986 C 453.295197 503.948669 452.335846 504.245453 451.193787 504.337463 z" stroke-linecap="round" />
</g>
<g transform="matrix(1 0 0 1 536.56 596.94)"  >
<path style="stroke: none; stroke-width: 1; stroke-dasharray: none; stroke-linecap: butt; stroke-dashoffset: 0; stroke-linejoin: miter; stroke-miterlimit: 4; fill: rgb(150,164,184); fill-rule: nonzero; opacity: 1;" vector-effect="non-scaling-stroke"  transform=" translate(-444.57, -504.94)" d="M 443.192383 505.356628 C 443.881836 504.888519 444.75238 504.627533 445.941589 504.523132 C 445.298035 504.974365 444.335754 505.269043 443.192383 505.356628 z" stroke-linecap="round" />
</g>
<g transform="matrix(1 0 0 1 536.51 327.91)"  >
<path style="stroke: none; stroke-width: 1; stroke-dasharray: none; stroke-linecap: butt; stroke-dashoffset: 0; stroke-linejoin: miter; stroke-miterlimit: 4; fill: rgb(150,164,184); fill-rule: nonzero; opacity: 1;" vector-effect="non-scaling-stroke"  transform=" translate(-444.51, -235.91)" d="M 445.833801 235.896027 C 445.126556 236.138138 444.245667 236.14447 443.190125 235.932327 C 443.897034 235.695984 444.778564 235.678101 445.833801 235.896027 z" stroke-linecap="round" />
</g>
<g transform="matrix(1 0 0 1 310.34 374.84)"  >
<path style="stroke: none; stroke-width: 1; stroke-dasharray: none; stroke-linecap: butt; stroke-dashoffset: 0; stroke-linejoin: miter; stroke-miterlimit: 4; fill: rgb(182,188,196); fill-rule: nonzero; opacity: 1;" vector-effect="non-scaling-stroke"  transform=" translate(-218.34, -282.84)" d="M 216.952652 282.957672 C 217.698975 282.643738 218.582214 282.576447 219.735916 282.716248 C 219.034119 283.016998 218.061829 283.110657 216.952652 282.957672 z" stroke-linecap="round" />
</g>
<g transform="matrix(1 0 0 1 547.73 329.86)"  >
<path style="stroke: none; stroke-width: 1; stroke-dasharray: none; stroke-linecap: butt; stroke-dashoffset: 0; stroke-linejoin: miter; stroke-miterlimit: 4; fill: rgb(150,164,184); fill-rule: nonzero; opacity: 1;" vector-effect="non-scaling-stroke"  transform=" translate(-455.73, -237.87)" d="M 456.778687 237.899445 C 456.27417 238.125031 455.538727 238.087616 454.689117 237.831909 C 455.232544 237.621246 455.890137 237.62886 456.778687 237.899445 z" stroke-linecap="round" />
</g>
<g transform="matrix(1 0 0 1 562.96 334.93)"  >
<path style="stroke: none; stroke-width: 1; stroke-dasharray: none; stroke-linecap: butt; stroke-dashoffset: 0; stroke-linejoin: miter; stroke-miterlimit: 4; fill: rgb(150,164,184); fill-rule: nonzero; opacity: 1;" vector-effect="non-scaling-stroke"  transform=" translate(-470.95, -242.93)" d="M 472.086945 243.202713 C 471.473389 243.299469 470.721069 243.115952 469.816345 242.664856 C 470.425354 242.572342 471.186768 242.747391 472.086945 243.202713 z" stroke-linecap="round" />
</g>
<g transform="matrix(1 0 0 1 292.02 374.86)"  >
<path style="stroke: none; stroke-width: 1; stroke-dasharray: none; stroke-linecap: butt; stroke-dashoffset: 0; stroke-linejoin: miter; stroke-miterlimit: 4; fill: rgb(182,188,196); fill-rule: nonzero; opacity: 1;" vector-effect="non-scaling-stroke"  transform=" translate(-200.01, -282.86)" d="M 199.106934 283.13916 C 199.547379 282.75824 200.101608 282.59079 200.9198 282.5784 C 200.529419 282.93985 199.875076 283.14621 199.106934 283.13916 z" stroke-linecap="round" />
</g>
<g transform="matrix(1 0 0 1 542.74 328.8)"  >
<path style="stroke: none; stroke-width: 1; stroke-dasharray: none; stroke-linecap: butt; stroke-dashoffset: 0; stroke-linejoin: miter; stroke-miterlimit: 4; fill: rgb(150,164,184); fill-rule: nonzero; opacity: 1;" vector-effect="non-scaling-stroke"  transform=" translate(-450.74, -236.8)" d="M 451.767242 236.809753 C 451.278595 237.045288 450.553833 237.025482 449.71106 236.799362 C 450.239044 236.58017 450.885101 236.567291 451.767242 236.809753 z" stroke-linecap="round" />
</g>
<g transform="matrix(1 0 0 1 352.15 481.96)"  >
<path style="stroke: none; stroke-width: 1; stroke-dasharray: none; stroke-linecap: butt; stroke-dashoffset: 0; stroke-linejoin: miter; stroke-miterlimit: 4; fill: rgb(150,164,184); fill-rule: nonzero; opacity: 1;" vector-effect="non-scaling-stroke"  transform=" translate(-260.14, -389.97)" d="M 261.119507 389.584503 C 260.729675 390.003387 260.0336 390.252899 259.165039 390.347534 C 259.599457 389.933502 260.20636 389.674316 261.119507 389.584503 z" stroke-linecap="round" />
</g>
<g transform="matrix(1 0 0 1 349.81 598.88)"  >
<path style="stroke: none; stroke-width: 1; stroke-dasharray: none; stroke-linecap: butt; stroke-dashoffset: 0; stroke-linejoin: miter; stroke-miterlimit: 4; fill: rgb(150,164,184); fill-rule: nonzero; opacity: 1;" vector-effect="non-scaling-stroke"  transform=" translate(-257.81, -506.88)" d="M 256.835541 506.863342 C 257.355774 506.645416 257.960449 506.658447 258.780945 506.902557 C 258.304504 507.120514 257.612244 507.107422 256.835541 506.863342 z" stroke-linecap="round" />
</g>
<g transform="matrix(1 0 0 1 561.06 592.99)"  >
<path style="stroke: none; stroke-width: 1; stroke-dasharray: none; stroke-linecap: butt; stroke-dashoffset: 0; stroke-linejoin: miter; stroke-miterlimit: 4; fill: rgb(150,164,184); fill-rule: nonzero; opacity: 1;" vector-effect="non-scaling-stroke"  transform=" translate(-469.06, -501)" d="M 468.163513 501.461365 C 468.56604 500.984009 469.112732 500.699799 469.957458 500.532776 C 469.606201 500.984802 468.956909 501.319672 468.163513 501.461365 z" stroke-linecap="round" />
</g>
<g transform="matrix(1 0 0 1 589.95 577.96)"  >
<path style="stroke: none; stroke-width: 1; stroke-dasharray: none; stroke-linecap: butt; stroke-dashoffset: 0; stroke-linejoin: miter; stroke-miterlimit: 4; fill: rgb(150,164,184); fill-rule: nonzero; opacity: 1;" vector-effect="non-scaling-stroke"  transform=" translate(-497.95, -485.96)" d="M 497.228638 486.902252 C 497.392212 486.295715 497.878174 485.675262 498.667236 485.009399 C 498.497223 485.605408 498.024109 486.246887 497.228638 486.902252 z" stroke-linecap="round" />
</g>
<g transform="matrix(1 0 0 1 344.07 483.93)"  >
<path style="stroke: none; stroke-width: 1; stroke-dasharray: none; stroke-linecap: butt; stroke-dashoffset: 0; stroke-linejoin: miter; stroke-miterlimit: 4; fill: rgb(150,164,184); fill-rule: nonzero; opacity: 1;" vector-effect="non-scaling-stroke"  transform=" translate(-252.06, -391.93)" d="M 253.091064 391.389587 C 252.689789 391.862823 252.006744 392.213806 251.035706 392.469727 C 251.434921 392.005554 252.122086 391.636444 253.091064 391.389587 z" stroke-linecap="round" />
</g>
<g transform="matrix(1 0 0 1 567.22 336.99)"  >
<path style="stroke: none; stroke-width: 1; stroke-dasharray: none; stroke-linecap: butt; stroke-dashoffset: 0; stroke-linejoin: miter; stroke-miterlimit: 4; fill: rgb(150,164,184); fill-rule: nonzero; opacity: 1;" vector-effect="non-scaling-stroke"  transform=" translate(-475.22, -244.99)" d="M 475.641785 245.037613 C 475.711731 245.268478 475.278168 245.348846 475.278168 245.348846 C 475.278168 245.348846 474.884796 245.149399 474.788391 244.95105 C 475.00116 244.51355 475.294434 244.53157 475.641785 245.037613 z" stroke-linecap="round" />
</g>
<g transform="matrix(1 0 0 1 331.8 592.01)"  >
<path style="stroke: none; stroke-width: 1; stroke-dasharray: none; stroke-linecap: butt; stroke-dashoffset: 0; stroke-linejoin: miter; stroke-miterlimit: 4; fill: rgb(150,164,184); fill-rule: nonzero; opacity: 1;" vector-effect="non-scaling-stroke"  transform=" translate(-239.8, -500)" d="M 239.430145 499.903503 C 239.668411 499.549469 239.888931 499.587402 240.159378 499.947876 C 240.237091 500.108337 239.845657 500.347687 239.845657 500.347687 C 239.845657 500.347687 239.440155 500.133484 239.430145 499.903503 z" stroke-linecap="round" />
</g>
</svg>